<?xml version="1.0" encoding="UTF-8" standalone="no"?>
<!DOCTYPE svg PUBLIC "-//W3C//DTD SVG 20010904//EN" "http://www.w3.org/TR/2001/REC-SVG-20010904/DTD/svg10.dtd">
<svg version="1.0" xmlns="http://www.w3.org/2000/svg" width="900.000000pt" height="900.000000pt" viewBox="0 0 900.000000 900.000000" preserveAspectRatio="xMidYMid meet">
<metadata>
Created by potrace 1.10, written by Peter Selinger 2001-2011
</metadata>
<g transform="translate(0.000000,900.000000) scale(0.100000,-0.100000)" fill="#000000" stroke="none">
<path d="M3285 7345 c-74 -18 -124 -47 -181 -104 -97 -96 -144 -223 -144 -385 0 -163 56 -308 162 -422 145 -154 350 -188 503 -84 138 94 205 236 205 434 0 143 -16 205 -89 344 -23 43 -142 157 -191 182 -47 24 -147 50 -190 49 -14 -1 -47 -7 -75 -14z"/>
<path d="M2205 7064 c-165 -37 -243 -97 -303 -229 -54 -117 -54 -294 0 -435 49 -131 167 -263 285 -322 102 -51 188 -65 276 -44 95 22 194 90 233 158 54 96 74 172 74 276 -1 253 -183 512 -405 576 -59 17 -132 26 -160 20z"/>
<path d="M4273 6721 c-225 -69 -376 -333 -334 -588 15 -98 48 -168 109 -231 76 -80 118 -97 237 -96 90 0 106 3 155 29 66 34 177 145 206 206 40 83 53 124 65 200 29 194 -55 384 -202 456 -84 42 -154 49 -236 24z"/>
<path d="M3102 6084 c-152 -26 -289 -93 -402 -200 -88 -83 -138 -149 -194 -254 -93 -177 -127 -304 -161 -611 -26 -236 -17 -321 47 -441 106 -198 403 -286 628 -186 61 27 242 164 310 234 94 97 154 106 303 48 87 -35 98 -36 212 -37 104 0 129 3 187 25 232 87 360 247 361 449 0 195 -73 317 -357 597 -275 270 -396 341 -641 377 -121 18 -183 17 -293 -1z"/>
<path d="M1690 6020 c-188 -28 -306 -210 -271 -420 28 -170 148 -329 306 -406 74 -36 87 -39 182 -42 91 -3 108 -1 155 20 59 27 129 91 154 141 165 318 -165 761 -526 707z"/>
<path d="M5630 4712 c-78 -26 -109 -44 -169 -98 -83 -75 -135 -161 -177 -294 -24 -75 -24 -254 0 -335 35 -118 111 -220 204 -272 66 -38 68 -38 177 -37 117 0 139 7 231 66 49 31 126 115 161 175 14 24 38 83 54 130 25 73 29 102 29 193 0 162 -46 285 -142 381 -96 96 -243 133 -368 91z"/>
<path d="M6689 4256 c-131 -37 -276 -164 -347 -304 -172 -340 -12 -711 305 -712 161 0 325 96 428 250 135 203 152 423 47 603 -83 143 -261 210 -433 163z"/>
<path d="M4653 4195 c-193 -47 -331 -296 -295 -532 7 -44 22 -104 33 -134 40 -104 139 -212 229 -248 56 -23 175 -26 229 -6 109 41 201 142 246 272 33 91 35 247 4 343 -50 162 -159 274 -298 306 -66 16 -79 16 -148 -1z"/>
<path d="M5470 3419 c-162 -46 -304 -115 -424 -207 -62 -48 -295 -282 -366 -367 -56 -68 -108 -177 -119 -253 -31 -196 93 -400 304 -503 l70 -34 270 0 c319 0 298 7 390 -132 67 -103 103 -143 165 -186 93 -66 159 -90 287 -107 158 -21 282 19 386 124 93 94 157 251 157 385 0 77 -51 471 -76 586 -16 73 -47 173 -63 203 -5 9 -12 24 -15 32 -26 68 -166 234 -260 309 -68 53 -202 123 -286 148 -85 25 -336 27 -420 2z"/>
<path d="M7085 3151 c-189 -57 -331 -187 -388 -355 -22 -66 -22 -197 1 -251 41 -98 116 -166 221 -201 78 -25 215 -16 301 22 95 41 138 70 202 136 142 147 184 353 102 494 -37 65 -116 130 -182 150 -83 25 -185 27 -257 5z"/>
</g>
</svg>